<svg width="16" height="17" viewBox="0 0 16 17" fill="none" xmlns="http://www.w3.org/2000/svg">
    <path d="M8 3.4165C4.36364 3.4165 1.25818 5.67832 0 8.87105C1.25818 12.0638 4.36364 14.3256 8 14.3256C11.6364 14.3256 14.7418 12.0638 16 8.87105C14.7418 5.67832 11.6364 3.4165 8 3.4165ZM8 12.5074C5.99273 12.5074 4.36364 10.8783 4.36364 8.87105C4.36364 6.86378 5.99273 5.23469 8 5.23469C10.0073 5.23469 11.6364 6.86378 11.6364 8.87105C11.6364 10.8783 10.0073 12.5074 8 12.5074ZM8 6.68923C6.79273 6.68923 5.81818 7.66378 5.81818 8.87105C5.81818 10.0783 6.79273 11.0529 8 11.0529C9.20727 11.0529 10.1818 10.0783 10.1818 8.87105C10.1818 7.66378 9.20727 6.68923 8 6.68923Z" fill="#4D4D4D"/>
</svg>
